<svg width="4021" height="1501" xmlns="http://www.w3.org/2000/svg" xmlns:xlink="http://www.w3.org/1999/xlink" xml:space="preserve" overflow="hidden"><defs><clipPath id="clip0"><rect x="214" y="455" width="4021" height="1501"/></clipPath><clipPath id="clip1"><rect x="3070" y="522" width="1070" height="163"/></clipPath><clipPath id="clip2"><rect x="3070" y="522" width="1070" height="163"/></clipPath><clipPath id="clip3"><rect x="3070" y="522" width="1070" height="163"/></clipPath><clipPath id="clip4"><rect x="297" y="522" width="1104" height="232"/></clipPath><clipPath id="clip5"><rect x="297" y="522" width="1104" height="232"/></clipPath><clipPath id="clip6"><rect x="297" y="522" width="1104" height="232"/></clipPath><clipPath id="clip7"><rect x="594" y="961" width="501" height="609"/></clipPath><clipPath id="clip8"><rect x="594" y="961" width="501" height="609"/></clipPath><clipPath id="clip9"><rect x="594" y="961" width="501" height="609"/></clipPath><clipPath id="clip10"><rect x="3358" y="961" width="500" height="609"/></clipPath><clipPath id="clip11"><rect x="3358" y="961" width="500" height="609"/></clipPath><clipPath id="clip12"><rect x="3358" y="961" width="500" height="609"/></clipPath></defs><g clip-path="url(#clip0)" transform="translate(-214 -455)"><rect x="216.5" y="457.5" width="1266" height="1496" stroke="#003964" stroke-width="4.58333" stroke-miterlimit="8" fill="#003964"/><rect x="2966.5" y="457.5" width="1266" height="1496" stroke="#003964" stroke-width="4.58333" stroke-miterlimit="8" fill="#D9D9D9"/><g clip-path="url(#clip1)"><g clip-path="url(#clip2)"><g clip-path="url(#clip3)"><path d="M259.314 51.7493C247.814 51.7493 238.014 55.7986 230.078 62.2774L230.078 52.8021 203.434 52.8021 203.434 156.706 231.212 156.706 231.212 90.2981C235.018 84.9531 244.655 77.4215 256.398 77.4215 260.609 77.4215 264.416 77.7455 267.493 79.1222L267.493 52.4782C264.82 51.9923 262.067 51.7493 259.314 51.7493" fill-rule="evenodd" transform="matrix(1 0 0 1.00019 3070 522)"/><path d="M17.4927 125.041C24.5384 131.438 35.3904 135.326 45.8374 135.326 53.288 135.326 59.038 131.681 59.038 126.579 59.038 110.949 8.90833 116.537 8.90833 83.0905 8.90833 63.1682 28.1017 50.7775 48.5909 50.7775 62.0344 50.7775 76.7736 55.8795 83.5764 61.3055L70.5378 81.4708C65.2738 77.4215 58.2281 74.2631 50.7775 74.2631 43.0839 74.2631 36.6861 77.2595 36.6861 82.6045 36.6861 96.129 86.8158 90.784 86.8158 126.741 86.8158 146.664 67.3794 158.892 45.6755 158.892 31.3411 158.892 16.197 153.952 4.04924 144.963L17.4927 125.041Z" fill-rule="evenodd" transform="matrix(1 0 0 1.00019 3070 522)"/><path d="M191.61 103.823C191.61 74.911 171.364 50.6965 142.776 50.6965 112.083 50.6965 92.4037 75.9638 92.4037 104.875 92.4037 137.431 115.646 158.811 146.583 158.811 162.618 158.811 178.977 152.171 189.019 140.185L173.227 124.312C168.287 129.657 158.892 136.298 147.23 136.298 132.491 136.298 120.748 126.255 119.291 111.678L190.962 111.678C191.367 109.411 191.61 106.576 191.61 103.823ZM120.505 91.3509C121.801 81.9567 131.195 73.1293 142.695 73.1293 154.033 73.1293 162.294 82.1186 163.184 91.3509L120.505 91.3509Z" fill-rule="evenodd" transform="matrix(1 0 0 1.00019 3070 522)"/><path d="M333.577 116.213 361.921 52.8021 390.752 52.8021 343.214 156.706 323.939 156.706 276.401 52.8021 305.232 52.8021Z" fill-rule="evenodd" transform="matrix(1 0 0 1.00019 3070 522)"/><path d="M414.076 4.04924C424.118 4.04924 432.216 11.7428 432.216 21.7849 432.216 31.827 424.118 39.6016 414.076 39.6016 404.033 39.6016 395.935 31.908 395.935 21.7849 395.935 11.7428 404.033 4.04924 414.076 4.04924" fill-rule="evenodd" transform="matrix(1 0 0 1.00019 3070 522)"/><path d="M400.227 52.8021 428.005 52.8021 428.005 156.706 400.227 156.706Z" fill-rule="evenodd" transform="matrix(1 0 0 1.00019 3070 522)"/><path d="M542.599 135.488C530.451 151.766 515.064 158.811 495.627 158.811 463.638 158.811 440.153 134.84 440.153 104.875 440.153 74.668 464.286 50.6965 495.87 50.6965 513.768 50.6965 529.803 59.038 539.359 71.5096L519.761 88.8404C514.254 81.5517 505.912 76.4497 495.87 76.4497 479.835 76.4497 467.93 89.0833 467.93 104.956 467.93 121.234 479.673 133.22 496.518 133.22 507.856 133.22 516.764 126.336 521.299 119.534L542.599 135.488Z" fill-rule="evenodd" transform="matrix(1 0 0 1.00019 3070 522)"/><path d="M643.344 140.185C633.302 152.171 616.862 158.811 600.908 158.811 569.971 158.811 546.729 137.431 546.729 104.875 546.729 75.9638 566.327 50.6965 597.101 50.6965 625.689 50.6965 645.935 74.911 645.935 103.823 645.935 106.576 645.692 109.411 645.287 111.759L573.616 111.759C575.073 126.336 586.816 136.378 601.555 136.378 613.298 136.378 622.693 129.738 627.552 124.393L643.344 140.185ZM617.509 91.3509C616.619 82.1186 608.358 73.1293 597.02 73.1293 585.521 73.1293 576.126 81.8757 574.831 91.3509L617.509 91.3509Z" fill-rule="evenodd" transform="matrix(1 0 0 1.00019 3070 522)"/><path d="M656.949 156.706 656.949 52.8021 683.593 52.8021 683.593 61.1436C691.449 54.7458 701.329 50.6155 712.829 50.6155 727.163 50.6155 740.121 57.0133 748.705 67.2984 755.508 75.3969 759.395 85.9249 759.395 103.742L759.395 156.625 731.698 156.625 731.698 101.555C731.698 91.2699 729.35 85.9249 725.543 82.0377 721.899 78.3933 716.392 76.2877 709.994 76.2877 698.251 76.2877 688.695 83.8193 684.808 89.1643L684.808 156.625 656.949 156.625Z" fill-rule="evenodd" transform="matrix(1 0 0 1.00019 3070 522)"/><path d="M830.824 50.6965C797.701 50.5345 770.247 77.6645 770.004 110.868 769.842 128.442 777.212 144.396 789.035 155.572 793.328 159.621 799.968 160.026 804.665 156.382 811.549 151.037 820.377 147.797 830.581 147.797 840.704 147.797 849.612 151.037 856.496 156.382 861.193 160.026 867.834 159.54 872.207 155.491 883.869 144.396 891.076 128.766 891.076 111.435 890.914 77.9884 864.027 50.8585 830.824 50.6965M830.419 141.723C812.44 141.723 800.211 128.199 800.211 111.516 800.211 94.7523 812.521 81.0658 830.419 81.0658 848.397 81.0658 860.626 94.8333 860.626 111.516 860.707 128.199 848.397 141.723 830.419 141.723" fill="#62D84E" fill-rule="evenodd" transform="matrix(1 0 0 1.00019 3070 522)"/><path d="M945.822 156.706 925.171 156.706 883.95 52.8021 911.646 52.8021 934.241 112.164 956.35 52.8021 979.512 52.8021 1001.46 112.164 1024.3 52.8021 1051.99 52.8021 1010.77 156.706 990.121 156.706 967.931 97.5867Z" fill-rule="evenodd" transform="matrix(1 0 0 1.00019 3070 522)"/><path d="M1052.32 144.963 1049.97 144.963 1049.97 149.336 1048.03 149.336 1048.03 137.269 1052.88 137.269C1055.07 137.269 1056.77 138.97 1056.77 141.157 1056.77 142.695 1055.8 144.072 1054.34 144.639L1057.1 149.336 1054.91 149.336 1052.32 144.963ZM1049.97 143.181 1052.8 143.181C1053.86 143.181 1054.67 142.29 1054.67 141.157 1054.67 140.023 1053.86 139.132 1052.8 139.132L1049.97 139.132 1049.97 143.181Z" transform="matrix(1 0 0 1.00019 3070 522)"/><path d="M1051.99 132.41C1058.15 132.41 1063.17 137.431 1063.17 143.586 1063.17 149.741 1058.15 154.762 1051.99 154.762 1045.84 154.762 1040.82 149.741 1040.82 143.586 1040.82 137.431 1045.84 132.41 1051.99 132.41M1051.99 130.629C1044.87 130.629 1039.04 136.378 1039.04 143.586 1039.04 150.794 1044.79 156.544 1051.99 156.544 1059.12 156.544 1064.95 150.794 1064.95 143.586 1064.95 136.378 1059.2 130.629 1051.99 130.629L1051.99 130.629Z" transform="matrix(1 0 0 1.00019 3070 522)"/></g></g></g><g clip-path="url(#clip4)"><g clip-path="url(#clip5)"><g clip-path="url(#clip6)"><path d="M408.042 373.141C408.042 373.518 408.004 373.971 407.929 374.499 407.929 375.027 407.853 375.631 407.702 376.31 407.627 376.914 407.476 377.63 407.25 378.46 407.099 379.29 406.872 380.233 406.571 381.289L376.242 472.616C375.865 473.898 375.337 474.954 374.658 475.784 374.054 476.539 372.998 477.142 371.489 477.595 370.055 478.048 368.056 478.349 365.491 478.5 363.001 478.651 359.719 478.727 355.645 478.727 351.647 478.727 348.365 478.614 345.8 478.387 343.31 478.236 341.349 477.935 339.915 477.482 338.481 477.029 337.425 476.426 336.746 475.672 336.142 474.841 335.652 473.823 335.275 472.616L304.946 381.289C304.493 379.78 304.116 378.422 303.814 377.215 303.588 376.008 303.437 375.141 303.362 374.612 303.362 374.084 303.362 373.594 303.362 373.141 303.362 372.387 303.55 371.745 303.928 371.217 304.38 370.614 305.135 370.123 306.191 369.747 307.247 369.369 308.681 369.105 310.491 368.954 312.377 368.803 314.716 368.728 317.508 368.728 320.601 368.728 323.091 368.841 324.977 369.068 326.863 369.218 328.334 369.482 329.39 369.859 330.522 370.161 331.314 370.652 331.767 371.331 332.22 371.934 332.597 372.689 332.899 373.594L355.872 447.719 356.551 450.548 357.23 447.719 379.863 373.594C380.09 372.689 380.429 371.934 380.881 371.331 381.41 370.652 382.202 370.161 383.258 369.859 384.315 369.482 385.71 369.218 387.446 369.068 389.256 368.841 391.595 368.728 394.462 368.728 397.253 368.728 399.517 368.803 401.252 368.954 403.062 369.105 404.458 369.369 405.439 369.747 406.42 370.123 407.099 370.614 407.476 371.217 407.853 371.745 408.042 372.387 408.042 373.141Z" stroke="#FFFFFF" stroke-width="0.501119" fill="#FFFFFF" transform="matrix(1.00192 0 0 1 297 225.557)"/><path d="M515.666 420.785C515.666 424.255 514.875 426.82 513.286 428.48 511.778 430.14 509.668 430.97 506.952 430.97L445.5 430.97C445.5 435.27 445.991 439.194 446.971 442.74 448.028 446.21 449.65 449.19 451.838 451.68 454.101 454.094 456.968 455.942 460.439 457.225 463.984 458.508 468.209 459.149 473.113 459.149 478.093 459.149 482.469 458.809 486.241 458.13 490.013 457.376 493.257 456.583 495.973 455.754 498.765 454.849 501.066 454.056 502.878 453.377 504.687 452.623 506.16 452.246 507.288 452.246 507.969 452.246 508.535 452.397 508.986 452.698 509.442 452.925 509.818 453.377 510.119 454.056 510.42 454.735 510.61 455.716 510.685 456.999 510.836 458.206 510.911 459.753 510.911 461.639 510.911 463.298 510.876 464.732 510.8 465.939 510.72 467.07 510.61 468.052 510.46 468.881 510.309 469.711 510.084 470.428 509.778 471.031 509.478 471.559 509.062 472.088 508.535 472.616 508.084 473.144 506.761 473.86 504.572 474.766 502.387 475.672 499.594 476.577 496.199 477.482 492.804 478.312 488.919 479.029 484.543 479.632 480.168 480.311 475.49 480.651 470.51 480.651 461.532 480.651 453.648 479.519 446.858 477.256 440.144 474.993 434.523 471.559 429.997 466.958 425.47 462.355 422.075 456.546 419.811 449.53 417.623 442.513 416.529 434.29 416.529 424.859 416.529 415.881 417.699 407.809 420.038 400.641 422.377 393.398 425.772 387.287 430.223 382.308 434.674 377.253 440.069 373.405 446.406 370.765 452.818 368.124 460.024 366.804 468.021 366.804 476.471 366.804 483.675 368.049 489.636 370.538 495.671 373.028 500.613 376.499 504.461 380.95 508.31 385.326 511.136 390.531 512.95 396.567 514.759 402.603 515.666 409.167 515.666 416.258ZM488.052 412.637C488.278 404.639 486.656 398.378 483.185 393.851 479.79 389.249 474.509 386.948 467.342 386.948 463.72 386.948 460.552 387.627 457.836 388.985 455.195 390.343 452.969 392.191 451.159 394.53 449.423 396.793 448.065 399.509 447.085 402.678 446.179 405.771 445.651 409.091 445.5 412.637Z" stroke="#FFFFFF" stroke-width="0.501119" fill="#FFFFFF" transform="matrix(1.00192 0 0 1 297 225.557)"/><path d="M604.049 382.647C604.049 385.363 603.974 387.589 603.823 389.324 603.673 391.06 603.442 392.418 603.142 393.398 602.841 394.379 602.425 395.058 601.899 395.435 601.448 395.813 600.841 396.001 600.09 396.001 599.483 396.001 598.807 395.888 598.05 395.662 597.294 395.36 596.427 395.058 595.449 394.756 594.542 394.455 593.525 394.191 592.393 393.964 591.26 393.662 590.017 393.512 588.659 393.512 587.071 393.512 585.487 393.851 583.904 394.53 582.32 395.134 580.661 396.114 578.928 397.472 577.264 398.83 575.49 400.641 573.606 402.905 571.797 405.168 569.832 407.959 567.723 411.279L567.723 474.2C567.723 474.954 567.497 475.633 567.041 476.237 566.59 476.765 565.798 477.218 564.666 477.595 563.608 477.972 562.175 478.236 560.366 478.387 558.557 478.614 556.252 478.727 553.461 478.727 550.669 478.727 548.369 478.614 546.56 478.387 544.746 478.236 543.278 477.972 542.145 477.595 541.088 477.218 540.336 476.765 539.88 476.237 539.429 475.633 539.204 474.954 539.204 474.2L539.204 373.254C539.204 372.5 539.394 371.859 539.77 371.331 540.146 370.727 540.828 370.237 541.805 369.859 542.787 369.482 544.03 369.218 545.543 369.068 547.127 368.841 549.086 368.728 551.426 368.728 553.842 368.728 555.841 368.841 557.425 369.068 559.008 369.218 560.216 369.482 561.043 369.859 561.95 370.237 562.591 370.727 562.967 371.331 563.348 371.859 563.533 372.5 563.533 373.254L563.533 385.816C566.174 382.044 568.665 378.951 571.005 376.536 573.34 374.047 575.57 372.085 577.68 370.652 579.794 369.218 581.904 368.238 584.019 367.709 586.129 367.106 588.243 366.804 590.353 366.804 591.335 366.804 592.393 366.88 593.525 367.03 594.658 367.106 595.825 367.295 597.033 367.596 598.241 367.822 599.293 368.124 600.2 368.501 601.107 368.803 601.749 369.143 602.124 369.52 602.575 369.897 602.881 370.312 603.031 370.765 603.257 371.217 603.442 371.859 603.598 372.689 603.748 373.443 603.858 374.612 603.933 376.197 604.009 377.781 604.049 379.931 604.049 382.647Z" stroke="#FFFFFF" stroke-width="0.501119" fill="#FFFFFF" transform="matrix(1.00192 0 0 1 297 225.557)"/><path d="M689.94 445.682C689.94 451.416 688.848 456.471 686.663 460.846 684.548 465.222 681.532 468.881 677.608 471.823 673.684 474.766 669.044 476.954 663.687 478.387 658.33 479.896 652.522 480.651 646.258 480.651 642.489 480.651 638.866 480.349 635.394 479.745 632.001 479.217 628.944 478.538 626.228 477.708 623.512 476.803 621.252 475.898 619.438 474.993 617.629 474.087 616.306 473.257 615.479 472.502 614.647 471.673 614.006 470.428 613.555 468.768 613.104 467.033 612.873 464.506 612.873 461.186 612.873 458.998 612.949 457.262 613.104 455.98 613.254 454.622 613.48 453.566 613.78 452.811 614.081 451.982 614.462 451.453 614.913 451.227 615.364 450.925 615.93 450.774 616.612 450.774 617.439 450.774 618.646 451.265 620.23 452.246 621.893 453.151 623.928 454.169 626.343 455.301 628.759 456.433 631.55 457.489 634.717 458.47 637.959 459.451 641.623 459.941 645.692 459.941 648.257 459.941 650.522 459.677 652.482 459.149 654.521 458.62 656.255 457.866 657.688 456.886 659.197 455.904 660.329 454.66 661.086 453.151 661.838 451.642 662.219 449.907 662.219 447.945 662.219 445.682 661.502 443.758 660.069 442.174 658.711 440.514 656.862 439.08 654.521 437.873 652.256 436.666 649.656 435.534 646.714 434.478 643.847 433.422 640.866 432.253 637.774 430.97 634.752 429.687 631.776 428.216 628.834 426.556 625.968 424.897 623.362 422.86 621.022 420.445 618.761 418.031 616.912 415.126 615.479 411.732 614.121 408.337 613.44 404.263 613.44 399.509 613.44 394.681 614.387 390.267 616.271 386.269 618.155 382.195 620.871 378.724 624.419 375.857 627.962 372.99 632.267 370.765 637.318 369.18 642.449 367.596 648.182 366.804 654.521 366.804 657.688 366.804 660.745 367.03 663.687 367.483 666.704 367.935 669.42 368.501 671.835 369.18 674.25 369.859 676.285 370.614 677.949 371.444 679.607 372.198 680.775 372.878 681.456 373.481 682.208 374.009 682.739 374.575 683.04 375.178 683.341 375.706 683.566 376.385 683.717 377.215 683.867 377.97 683.982 378.951 684.057 380.158 684.208 381.289 684.283 382.723 684.283 384.458 684.283 386.495 684.208 388.155 684.057 389.437 683.982 390.72 683.792 391.739 683.491 392.493 683.266 393.247 682.925 393.776 682.474 394.077 682.023 394.304 681.492 394.417 680.89 394.417 680.209 394.417 679.156 394.04 677.718 393.285 676.285 392.455 674.476 391.588 672.286 390.682 670.176 389.777 667.686 388.947 664.819 388.193 662.028 387.363 658.821 386.948 655.198 386.948 652.637 386.948 650.407 387.212 648.523 387.74 646.639 388.268 645.09 389.023 643.883 390.003 642.675 390.984 641.773 392.154 641.167 393.512 640.565 394.794 640.265 396.19 640.265 397.699 640.265 400.038 640.981 401.999 642.414 403.584 643.847 405.168 645.732 406.564 648.072 407.77 650.407 408.978 653.048 410.11 655.995 411.165 659.011 412.222 662.028 413.391 665.045 414.674 668.137 415.881 671.158 417.314 674.1 418.974 677.117 420.634 679.798 422.671 682.133 425.085 684.473 427.499 686.357 430.404 687.791 433.799 689.224 437.119 689.94 441.08 689.94 445.682Z" stroke="#FFFFFF" stroke-width="0.501119" fill="#FFFFFF" transform="matrix(1.00192 0 0 1 297 225.557)"/><path d="M739.737 474.2C739.737 474.954 739.511 475.633 739.055 476.237 738.604 476.765 737.812 477.218 736.68 477.595 735.622 477.972 734.189 478.236 732.38 478.387 730.571 478.614 728.271 478.727 725.48 478.727 722.684 478.727 720.383 478.614 718.574 478.387 716.765 478.236 715.292 477.972 714.159 477.595 713.102 477.218 712.35 476.765 711.899 476.237 711.443 475.633 711.218 474.954 711.218 474.2L711.218 373.481C711.218 372.726 711.443 372.085 711.899 371.557 712.35 370.953 713.102 370.463 714.159 370.086 715.292 369.633 716.765 369.294 718.574 369.068 720.383 368.841 722.684 368.728 725.48 368.728 728.271 368.728 730.571 368.841 732.38 369.068 734.189 369.294 735.622 369.633 736.68 370.086 737.812 370.463 738.604 370.953 739.055 371.557 739.511 372.085 739.737 372.726 739.737 373.481ZM741.886 339.078C741.886 344.812 740.719 348.773 738.379 350.961 736.038 353.148 731.704 354.242 725.365 354.242 718.95 354.242 714.616 353.186 712.35 351.074 710.161 348.961 709.068 345.151 709.068 339.644 709.068 333.91 710.201 329.949 712.461 327.761 714.801 325.498 719.176 324.366 725.59 324.366 731.929 324.366 736.229 325.46 738.494 327.648 740.754 329.76 741.886 333.57 741.886 339.078Z" stroke="#FFFFFF" stroke-width="0.501119" fill="#FFFFFF" transform="matrix(1.00192 0 0 1 297 225.557)"/><path d="M870.333 422.709C870.333 431.309 869.201 439.156 866.936 446.248 864.676 453.34 861.243 459.451 856.638 464.581 852.037 469.711 846.264 473.672 839.324 476.463 832.383 479.255 824.27 480.651 814.995 480.651 806.015 480.651 798.207 479.406 791.567 476.916 784.927 474.426 779.42 470.805 775.045 466.052 770.671 461.299 767.423 455.452 765.314 448.511 763.199 441.57 762.142 433.648 762.142 424.746 762.142 416.145 763.274 408.299 765.539 401.207 767.879 394.04 771.347 387.929 775.952 382.874 780.553 377.743 786.286 373.783 793.151 370.991 800.091 368.2 808.204 366.804 817.48 366.804 826.535 366.804 834.383 368.049 841.023 370.538 847.663 372.953 853.13 376.536 857.429 381.289 861.809 386.042 865.051 391.889 867.161 398.83 869.276 405.771 870.333 413.731 870.333 422.709ZM841.023 423.84C841.023 418.861 840.607 414.296 839.775 410.147 839.023 405.922 837.7 402.263 835.816 399.17 833.932 396.077 831.401 393.662 828.234 391.927 825.142 390.192 821.219 389.324 816.463 389.324 812.238 389.324 808.54 390.117 805.373 391.701 802.206 393.21 799.6 395.473 797.566 398.491 795.526 401.433 793.983 405.017 792.925 409.242 791.943 413.391 791.452 418.145 791.452 423.501 791.452 428.48 791.868 433.082 792.7 437.307 793.527 441.457 794.85 445.078 796.659 448.172 798.548 451.265 801.073 453.679 804.241 455.414 807.413 457.074 811.331 457.904 816.012 457.904 820.311 457.904 824.045 457.15 827.217 455.641 830.384 454.056 832.985 451.793 835.024 448.851 837.059 445.908 838.567 442.362 839.549 438.213 840.532 433.988 841.023 429.197 841.023 423.84Z" stroke="#FFFFFF" stroke-width="0.501119" fill="#FFFFFF" transform="matrix(1.00192 0 0 1 297 225.557)"/><path d="M916.506 467.863C916.506 472.314 915.79 475.256 914.356 476.69 912.923 478.124 910.358 478.84 906.659 478.84 903.111 478.84 900.621 478.161 899.188 476.803 897.83 475.369 897.153 472.465 897.153 468.089 897.153 463.638 897.87 460.696 899.303 459.262 900.736 457.829 903.302 457.112 907 457.112 910.543 457.112 912.998 457.829 914.356 459.262 915.79 460.62 916.506 463.487 916.506 467.863Z" stroke="#FFFFFF" stroke-width="0.501119" fill="#FFFFFF" transform="matrix(1.00192 0 0 1 297 225.557)"/><path d="M967.43 475.784C967.43 476.237 967.315 476.652 967.089 477.029 966.864 477.406 966.488 477.708 965.957 477.935 965.506 478.161 964.829 478.349 963.922 478.5 963.09 478.651 961.998 478.727 960.64 478.727 959.357 478.727 958.265 478.651 957.357 478.5 956.526 478.349 955.849 478.161 955.323 477.935 954.792 477.708 954.416 477.406 954.19 477.029 954.04 476.652 953.965 476.237 953.965 475.784L953.965 373.368C953.965 372.915 954.04 372.5 954.19 372.123 954.416 371.745 954.792 371.444 955.323 371.217 955.849 370.916 956.526 370.727 957.357 370.652 958.265 370.501 959.357 370.426 960.64 370.426 961.998 370.426 963.09 370.501 963.922 370.652 964.829 370.727 965.506 370.916 965.957 371.217 966.488 371.444 966.864 371.745 967.089 372.123 967.315 372.5 967.43 372.915 967.43 373.368ZM969.464 338.852C969.464 342.473 968.823 344.925 967.545 346.207 966.262 347.49 963.922 348.131 960.525 348.131 957.207 348.131 954.907 347.528 953.624 346.321 952.416 345.038 951.815 342.586 951.815 338.965 951.815 335.343 952.452 332.891 953.734 331.609 955.017 330.326 957.357 329.685 960.755 329.685 964.072 329.685 966.338 330.326 967.545 331.609 968.823 332.816 969.464 335.23 969.464 338.852Z" stroke="#FFFFFF" stroke-width="0.501119" fill="#FFFFFF" transform="matrix(1.00192 0 0 1 297 225.557)"/><path d="M1095.76 423.501C1095.76 431.649 1094.7 439.156 1092.59 446.021 1090.48 452.887 1087.31 458.847 1083.09 463.902 1078.94 468.957 1073.73 472.917 1067.47 475.784 1061.21 478.576 1053.93 479.972 1045.63 479.972 1037.63 479.972 1030.62 478.727 1024.58 476.237 1018.62 473.672 1013.6 470.05 1009.53 465.373 1005.53 460.62 1002.51 454.886 1000.47 448.172 998.514 441.457 997.532 433.875 997.532 425.425 997.532 417.277 998.549 409.77 1000.59 402.905 1002.7 396.039 1005.83 390.117 1009.98 385.137 1014.2 380.082 1019.45 376.159 1025.71 373.368 1031.97 370.576 1039.29 369.18 1047.66 369.18 1055.66 369.18 1062.64 370.426 1068.6 372.915 1074.64 375.405 1079.66 379.026 1083.65 383.779 1087.65 388.457 1090.67 394.153 1092.7 400.868 1094.74 407.582 1095.76 415.126 1095.76 423.501ZM1081.5 424.746C1081.5 418.936 1080.94 413.391 1079.81 408.11 1078.67 402.829 1076.79 398.189 1074.15 394.191 1071.51 390.117 1067.96 386.91 1063.51 384.571 1059.06 382.157 1053.51 380.95 1046.87 380.95 1040.76 380.95 1035.48 382.044 1031.03 384.232 1026.58 386.42 1022.92 389.475 1020.05 393.398 1017.26 397.246 1015.19 401.811 1013.83 407.091 1012.47 412.373 1011.79 418.069 1011.79 424.18 1011.79 430.065 1012.36 435.685 1013.49 441.042 1014.62 446.323 1016.5 450.963 1019.15 454.962 1021.79 458.96 1025.33 462.129 1029.78 464.468 1034.23 466.807 1039.78 467.976 1046.42 467.976 1052.53 467.976 1057.81 466.882 1062.27 464.694 1066.72 462.506 1070.33 459.488 1073.13 455.641 1076 451.793 1078.11 447.229 1079.47 441.947 1080.82 436.666 1081.5 430.932 1081.5 424.746Z" stroke="#FFFFFF" stroke-width="0.501119" fill="#FFFFFF" transform="matrix(1.00192 0 0 1 297 225.557)"/><path d="M96.8096 327.471C88.7321 328.697 80.8996 331.517 73.895 335.723 72.6322 336.481 71.3964 337.284 70.1727 338.104 67.5388 339.869 64.9595 341.718 62.468 343.679 59.2353 346.224 56.1504 348.957 53.2599 351.885 48.1499 357.061 43.6484 362.852 40.0247 369.159 35.8188 376.48 32.8113 384.475 31.0229 392.726 28.056 406.414 28.4753 420.821 32.2131 434.319 35.6662 446.789 41.9349 458.465 50.3785 468.27 57.8166 476.907 66.9314 484.094 77.0631 489.316 83.5089 492.639 90.3623 495.172 97.421 496.833 110.945 500.017 125.239 499.956 138.701 496.52 148.056 494.132 156.998 490.131 165.009 484.744 174.282 478.509 182.295 470.421 188.499 461.129 193.044 454.322 196.621 446.885 199.273 439.142 201.591 432.378 203.21 425.352 203.721 418.22 203.949 415.032 203.956 411.828 203.783 408.636 203.534 404.026 202.911 399.438 201.967 394.918 200.418 387.499 198.001 380.256 194.701 373.433 194.087 372.163 193.442 370.908 192.759 369.674 191.134 366.74 189.281 363.918 187.059 361.406 185.805 359.989 184.411 358.655 182.736 357.773 181.127 356.926 179.292 356.525 177.475 356.583 175.827 356.635 174.189 357.063 172.741 357.85 171.585 358.479 170.554 359.334 169.707 360.341 168.969 361.22 168.454 362.263 168.079 363.348 167.645 364.603 167.206 365.855 166.763 367.106 165.809 369.802 164.834 372.49 163.882 375.187 162.625 378.749 161.409 382.325 160.186 385.898 159.25 388.635 158.309 391.37 157.367 394.104 154.396 402.733 151.413 411.357 148.41 419.974 142.037 438.267 135.579 456.53 129.036 474.763 128.612 475.762 128.04 476.698 127.344 477.531 126.726 478.269 126.013 478.925 125.245 479.505 123.289 480.982 120.968 481.965 118.552 482.375 116.455 482.732 114.278 482.659 112.227 482.094 110.128 481.517 108.187 480.434 106.488 479.073 105.506 478.286 104.601 477.389 103.907 476.339 103.213 475.289 102.766 474.099 102.37 472.905 99.7933 465.147 97.1835 457.401 94.5396 449.665 92.5837 443.942 90.6088 438.225 88.6514 432.502 85.2113 422.444 81.8247 412.367 78.3785 402.31 76.7754 397.631 75.1598 392.957 73.5552 388.278 71.5568 382.451 69.5763 376.617 67.6135 370.777 67.4105 370.172 67.2331 369.557 67.1384 368.927 66.7134 366.105 67.6375 363.145 69.4591 360.949 71.2802 358.754 73.9456 357.317 76.7554 356.822 77.9425 356.613 79.1577 356.564 80.3584 356.675 83.1907 356.938 85.9519 358.187 87.8812 360.277 88.8459 361.323 89.5995 362.553 90.1648 363.858 90.7306 365.163 91.1069 366.541 91.4812 367.913 91.811 369.122 92.1502 370.328 92.4985 371.533 93.2402 374.095 94.0239 376.645 94.7901 379.2 97.1203 386.966 99.2937 394.778 101.555 402.565 105.025 414.509 108.703 426.392 112.204 438.328 112.688 439.976 113.168 441.626 113.645 443.276 113.798 443.805 113.985 444.339 114.345 444.756 114.704 445.173 115.207 445.455 115.742 445.583 116.203 445.694 116.69 445.699 117.153 445.594 117.694 445.471 118.203 445.185 118.566 444.766 118.93 444.346 119.123 443.808 119.282 443.276 120.7 438.53 122.141 433.79 123.604 429.057 125.246 423.751 126.915 418.453 128.553 413.146 132.45 400.522 136.167 387.844 139.953 375.187 141.898 368.688 143.861 362.194 145.842 355.706 145.875 355.598 145.918 355.494 145.967 355.392 146.801 353.687 147.682 352.001 148.69 350.392 153.754 342.304 162.16 336.308 171.524 334.471 181.918 332.432 193.019 335.577 201.403 342.05 207.577 346.816 212.335 353.235 215.936 360.153 219.247 366.513 221.63 373.326 223.452 380.26 225.941 389.733 227.4 399.476 227.775 409.263 228.172 419.623 227.35 430.056 224.956 440.144 222.767 449.369 219.265 458.285 214.558 466.516 209.05 476.147 201.925 484.799 193.949 492.511 191.354 495.02 188.667 497.435 185.868 499.715 176.176 507.613 165.159 513.882 153.421 518.192 139.095 523.454 123.674 525.789 108.446 524.772 96.8828 524 85.4543 521.309 74.7454 516.879 63.4747 512.219 53.0154 505.639 43.8014 497.648 39.2687 493.716 35.0322 489.443 31.1482 484.869 21.5088 473.519 14.0651 460.303 9.41216 446.158 5.08896 433.014 3.1766 419.067 3.96248 405.254 4.81332 390.298 8.83127 375.545 15.5509 362.158 20.6589 351.98 27.3104 342.594 35.0945 334.283 44.2452 324.513 55.0249 316.188 67.1033 310.417 74.2428 307.006 81.7966 304.5 89.4973 302.681 95.1239 301.352 100.833 300.386 106.566 299.643 110.191 299.173 113.911 298.797 117.466 299.643 119.139 300.041 120.747 300.707 122.226 301.585 124.463 302.911 126.43 304.752 127.676 307.035 128.797 309.087 129.307 311.469 129.117 313.8 128.907 316.362 127.843 318.853 126.11 320.753 124.625 322.38 122.664 323.566 120.535 324.135 119.775 324.339 118.997 324.465 118.217 324.574 117.114 324.728 116.007 324.847 114.898 324.949 113.478 325.08 112.056 325.182 110.638 325.325 107.973 325.595 105.325 326.012 102.683 326.453 100.723 326.78 98.765 327.119 96.8096 327.471Z" stroke="#FFFFFF" stroke-width="0.651454" fill="#FFFFFF" transform="matrix(1.00192 0 0 1 297 225.557)"/></g></g></g><text fill="#FFFFFF" font-family="Calibri,Calibri_MSFontService,sans-serif" font-weight="400" font-size="83" transform="matrix(1 0 0 1 1113.67 812)">platform<tspan fill="#000000" font-size="83" x="2733.55" y="-32">platform</tspan></text><g clip-path="url(#clip7)"><g clip-path="url(#clip8)"><g clip-path="url(#clip9)"><path d="M227.532 0C124.04 0 40.1378 30.5842 40.1378 68.33L40.1378 124.399C40.1378 162.149 124.04 192.724 227.532 192.724 331.02 192.724 414.922 162.144 414.922 124.399L414.922 68.33C414.922 30.5842 331.02 0 227.532 0Z" fill="#FFFFFF" transform="matrix(1 0 0 1.00004 616.513 1038.01)"/><path d="M227.532 225.398C128.723 225.398 47.2612 197.498 40.1378 162.12 39.7982 163.809 40.1378 254.715 40.1378 254.715 40.1378 292.47 124.04 323.045 227.532 323.045 331.02 323.045 414.922 292.461 414.922 254.715 414.922 254.715 415.132 163.804 414.797 162.12 407.664 197.503 326.336 225.398 227.532 225.398Z" fill="#FFFFFF" transform="matrix(1 0 0 1.00004 616.513 1038.01)"/><path d="M414.745 294.044C407.626 329.403 326.341 357.318 227.532 357.318 128.723 357.318 47.2421 329.398 40.1187 294.044L40.1378 386.643C40.1378 424.394 124.04 454.969 227.532 454.969 331.02 454.969 414.922 424.384 414.922 386.643Z" fill="#FFFFFF" transform="matrix(1 0 0 1.00004 616.513 1038.01)"/></g></g></g><text fill="#FFFFFF" font-family="Calibri,Calibri_MSFontService,sans-serif" font-weight="400" font-size="92" transform="matrix(1 0 0 1 462.012 1647)">Asset &amp; <tspan font-size="92" x="305.456" y="0">configuration</tspan><tspan font-size="92" x="224.194" y="110">inventory</tspan></text><g clip-path="url(#clip10)"><g clip-path="url(#clip11)"><g clip-path="url(#clip12)"><path d="M227.532 0C124.04 0 40.1378 30.5841 40.1378 68.3299L40.1378 124.398C40.1378 162.149 124.04 192.724 227.532 192.724 331.02 192.724 414.921 162.144 414.921 124.398L414.921 68.3299C414.921 30.5841 331.02 0 227.532 0Z" fill="#262626" transform="matrix(1 0 0 1.00004 3380.51 1038.01)"/><path d="M227.532 225.398C128.723 225.398 47.2612 197.498 40.1378 162.12 39.7981 163.809 40.1378 254.715 40.1378 254.715 40.1378 292.47 124.04 323.045 227.532 323.045 331.02 323.045 414.921 292.46 414.921 254.715 414.921 254.715 415.132 163.804 414.797 162.12 407.664 197.503 326.336 225.398 227.532 225.398Z" fill="#262626" transform="matrix(1 0 0 1.00004 3380.51 1038.01)"/><path d="M414.744 294.044C407.626 329.403 326.341 357.317 227.532 357.317 128.723 357.317 47.242 329.398 40.1186 294.044L40.1378 386.643C40.1378 424.394 124.04 454.968 227.532 454.968 331.02 454.968 414.921 424.384 414.921 386.643Z" fill="#262626" transform="matrix(1 0 0 1.00004 3380.51 1038.01)"/></g></g></g><text fill="#262626" font-family="Calibri,Calibri_MSFontService,sans-serif" font-weight="400" font-size="92" transform="matrix(1 0 0 1 3364.65 1647)">Configuration <tspan font-size="92" x="-180.881" y="110">Management Database</tspan></text><path d="M3177.39 1453.5 3177.39 1412.65 1196.5 1412.65 1196.5 1123.35 3177.39 1123.35 3177.39 1082.5 3358.5 1268Z" stroke="#2F528F" stroke-width="4.58333" stroke-miterlimit="8" fill="#DAE3F3" fill-rule="evenodd"/><path d="M2004.5 1354.5 2396.5 1354.5 2396.5 1735.17 2331.17 1800.5 2004.5 1800.5Z" fill="#FFF2CC" fill-rule="evenodd"/><path d="M2331.17 1800.5 2344.23 1748.23 2396.5 1735.17Z" fill="#CDC3A4" fill-rule="evenodd"/><path d="M2331.17 1800.5 2344.23 1748.23 2396.5 1735.17 2331.17 1800.5 2004.5 1800.5 2004.5 1354.5 2396.5 1354.5 2396.5 1735.17" stroke="#2F528F" stroke-width="4.58333" stroke-miterlimit="8" fill="none" fill-rule="evenodd"/><text fill="#003964" font-family="Calibri,Calibri_MSFontService,sans-serif" font-weight="400" font-size="83" transform="matrix(1 0 0 1 2073.1 1522)">Node.js <tspan font-size="83" x="34.2832" y="99">script</tspan><tspan fill="#000000" font-size="83" x="-313.676" y="-308">cron</tspan><tspan fill="#000000" font-size="83" x="-145.422" y="-308">controlled execution of</tspan><tspan fill="#000000" font-family="Courier New,Courier New_MSFontService,sans-serif" font-size="83" x="-778.334" y="-213">node servicenow</tspan><tspan fill="#000000" font-family="Courier New,Courier New_MSFontService,sans-serif" font-size="83" x="-39.2716" y="-213">-</tspan><tspan fill="#000000" font-family="Courier New,Courier New_MSFontService,sans-serif" font-size="83" x="9.99927" y="-213">cmdb</tspan><tspan fill="#000000" font-family="Courier New,Courier New_MSFontService,sans-serif" font-size="83" x="207.083" y="-213">-</tspan><tspan fill="#000000" font-family="Courier New,Courier New_MSFontService,sans-serif" font-size="83" x="256.353" y="-213">synchonization</tspan><tspan fill="#000000" font-family="Courier New,Courier New_MSFontService,sans-serif" font-size="83" x="946.145" y="-213">.js</tspan></text></g></svg>